# This file uses centimeters as units for non-parametric coordinates.

mtllib BasePillarLow.mtl
g default
v 250.000000 19.900120 150.000000
v 350.000000 19.900120 150.000000
v 250.000000 502.169848 150.000000
v 350.000000 502.169848 150.000000
v 250.000000 502.169848 50.000000
v 350.000000 502.169848 50.000000
v 250.000000 19.900120 50.000000
v 350.000000 19.900120 50.000000
v 250.000000 73.609496 150.000000
v 350.000000 73.609496 150.000000
v 350.000000 73.609496 50.000000
v 250.000000 73.609496 50.000000
v 250.000000 107.751620 50.000000
v 350.000000 107.751620 50.000000
v 350.000000 107.751513 150.000000
v 250.000000 107.751513 150.000000
v 250.000000 176.613421 50.000000
v 350.000000 176.613421 50.000000
v 350.000000 176.613349 150.000000
v 250.000000 176.613349 150.000000
v 250.000000 453.742671 50.000000
v 350.000000 453.742671 50.000000
v 350.000000 453.742671 150.000000
v 250.000000 453.742671 150.000000
v 230.823827 19.900120 169.176161
v 369.176149 19.900120 169.176161
v 369.176149 59.318936 169.176161
v 230.823827 59.318936 169.176161
v 369.176149 19.900120 30.823839
v 369.176149 59.318936 30.823839
v 230.823827 59.318936 30.823839
v 230.823827 19.900120 30.823839
v 229.757714 132.507122 29.757714
v 370.242238 132.507122 29.757714
v 364.313436 110.055423 35.686547
v 235.686541 110.055423 35.686547
v 364.313436 110.055316 164.313459
v 370.242238 132.506997 170.242274
v 235.686541 110.055316 164.313459
v 229.757714 132.506997 170.242274
v 235.686541 156.304235 35.686547
v 364.313436 156.304235 35.686547
v 364.313436 156.304199 164.313459
v 235.686541 156.304199 164.313459
v 234.253860 502.169848 34.253889
v 365.746093 502.169848 34.253889
v 365.746093 453.742671 34.253889
v 234.253860 453.742671 34.253889
v 365.746093 453.742671 165.746093
v 365.746093 502.169848 165.746093
v 234.253860 453.742671 165.746093
v 234.253860 502.169848 165.746093
v 350.000000 255.604083 150.000000
v 350.000000 255.604119 50.000000
v 250.000000 255.604119 50.000000
v 250.000000 255.604083 150.000000
v 250.000000 261.690551 50.000000
v 350.000000 261.690551 50.000000
v 350.000000 261.690551 150.000000
v 250.000000 261.690551 150.000000
v 250.000000 348.833788 50.000000
v 350.000000 348.833788 50.000000
v 350.000000 348.833824 150.000000
v 250.000000 348.833824 150.000000
v 350.000000 343.183446 150.000000
v 350.000000 343.183446 50.000000
v 250.000000 343.183446 50.000000
v 250.000000 343.183446 150.000000
v 253.132868 261.690551 53.132874
v 346.867108 261.690551 53.132874
v 346.867108 255.604119 53.132874
v 253.132868 255.604119 53.132874
v 346.867108 255.604083 146.867120
v 346.867108 261.690551 146.867120
v 253.132868 255.604083 146.867120
v 253.132868 261.690551 146.867120
v 253.132868 348.833788 53.132874
v 346.867108 348.833788 53.132874
v 346.867108 343.183446 53.132874
v 253.132868 343.183446 53.132874
v 346.867108 343.183446 146.867120
v 346.867108 348.833824 146.867120
v 253.132868 343.183446 146.867120
v 253.132868 348.833824 146.867120
vt 0.375000 0.000000
vt 0.625000 0.000000
vt 0.375000 0.250000
vt 0.625000 0.250000
vt 0.375000 0.500000
vt 0.625000 0.500000
vt 0.375000 0.750000
vt 0.625000 0.750000
vt 0.875000 0.000000
vt 0.875000 0.250000
vt 0.125000 0.000000
vt 0.125000 0.250000
vt 0.375000 0.027842
vt 0.625000 0.027842
vt 0.625000 0.722158
vt 0.875000 0.027842
vt 0.125000 0.027842
vt 0.375000 0.722158
vt 0.125000 0.045541
vt 0.375000 0.704459
vt 0.625000 0.704459
vt 0.875000 0.045541
vt 0.625000 0.045541
vt 0.375000 0.045541
vt 0.125000 0.062870
vt 0.375000 0.687130
vt 0.625000 0.687130
vt 0.875000 0.062870
vt 0.625000 0.062870
vt 0.375000 0.062870
vt 0.125000 0.081237
vt 0.375000 0.668763
vt 0.625000 0.668763
vt 0.875000 0.081237
vt 0.625000 0.081237
vt 0.375000 0.081237
vt 0.125000 0.224896
vt 0.375000 0.525104
vt 0.625000 0.525104
vt 0.875000 0.224896
vt 0.625000 0.224896
vt 0.375000 0.224896
vt 0.375000 0.000000
vt 0.625000 0.000000
vt 0.625000 0.027842
vt 0.375000 0.027842
vt 0.875000 0.000000
vt 0.875000 0.027842
vt 0.375000 0.722158
vt 0.625000 0.722158
vt 0.625000 0.750000
vt 0.375000 0.750000
vt 0.125000 0.000000
vt 0.125000 0.027842
vt 0.625000 0.704459
vt 0.375000 0.704459
vt 0.625000 0.045541
vt 0.875000 0.045541
vt 0.375000 0.045541
vt 0.125000 0.045541
vt 0.375000 0.668763
vt 0.625000 0.668763
vt 0.875000 0.081237
vt 0.625000 0.081237
vt 0.375000 0.081237
vt 0.125000 0.081237
vt 0.375000 0.500000
vt 0.625000 0.500000
vt 0.625000 0.525104
vt 0.375000 0.525104
vt 0.625000 0.224896
vt 0.875000 0.224896
vt 0.875000 0.250000
vt 0.625000 0.250000
vt 0.375000 0.224896
vt 0.375000 0.250000
vt 0.125000 0.224896
vt 0.125000 0.250000
vt 0.625000 0.122185
vt 0.625000 0.627815
vt 0.875000 0.122185
vt 0.125000 0.122185
vt 0.375000 0.627815
vt 0.375000 0.122185
vt 0.125000 0.125340
vt 0.375000 0.624660
vt 0.625000 0.624660
vt 0.875000 0.125340
vt 0.625000 0.125340
vt 0.375000 0.125340
vt 0.125000 0.170513
vt 0.375000 0.579487
vt 0.625000 0.579487
vt 0.875000 0.170513
vt 0.625000 0.170513
vt 0.375000 0.170513
vt 0.625000 0.167584
vt 0.625000 0.582416
vt 0.875000 0.167584
vt 0.125000 0.167584
vt 0.375000 0.582416
vt 0.375000 0.167584
vt 0.375000 0.624660
vt 0.625000 0.624660
vt 0.625000 0.627815
vt 0.375000 0.627815
vt 0.625000 0.122185
vt 0.875000 0.122185
vt 0.875000 0.125340
vt 0.625000 0.125340
vt 0.375000 0.122185
vt 0.375000 0.125340
vt 0.125000 0.122185
vt 0.125000 0.125340
vt 0.375000 0.579487
vt 0.625000 0.579487
vt 0.625000 0.582416
vt 0.375000 0.582416
vt 0.625000 0.167584
vt 0.875000 0.167584
vt 0.875000 0.170513
vt 0.625000 0.170513
vt 0.375000 0.167584
vt 0.375000 0.170513
vt 0.125000 0.167584
vt 0.125000 0.170513
vn 0.000000 0.000000 1.000000
vn 0.000000 0.000000 1.000000
vn 0.000000 0.000000 1.000000
vn 0.000000 0.000000 1.000000
vn 0.000000 1.000000 0.000000
vn 0.000000 1.000000 0.000000
vn 0.000000 1.000000 0.000000
vn 0.000000 1.000000 0.000000
vn 0.000000 0.000000 -1.000000
vn 0.000000 0.000000 -1.000000
vn 0.000000 0.000000 -1.000000
vn 0.000000 0.000000 -1.000000
vn 1.000000 0.000000 0.000000
vn 1.000000 0.000000 0.000000
vn 1.000000 0.000000 0.000000
vn 1.000000 0.000000 0.000000
vn -1.000000 0.000000 0.000000
vn -1.000000 0.000000 0.000000
vn -1.000000 0.000000 0.000000
vn -1.000000 0.000000 0.000000
vn 0.000000 0.000000 1.000000
vn 0.000000 0.000000 1.000000
vn 0.000000 0.000000 1.000000
vn 0.000000 0.000000 1.000000
vn 1.000000 0.000000 0.000000
vn 1.000000 0.000000 0.000000
vn 1.000000 0.000000 0.000000
vn 1.000000 0.000000 0.000000
vn 0.000000 0.000000 -1.000000
vn 0.000000 0.000000 -1.000000
vn 0.000000 0.000000 -1.000000
vn 0.000000 0.000000 -1.000000
vn -1.000000 0.000000 0.000000
vn -1.000000 0.000000 0.000000
vn -1.000000 0.000000 0.000000
vn -1.000000 0.000000 0.000000
vn 0.000000 0.001249 -0.999999
vn 0.000000 0.001249 -0.999999
vn 0.000000 -0.255319 -0.966857
vn 0.000000 -0.255318 -0.966857
vn 0.966857 -0.255317 -0.000000
vn 0.966857 -0.255317 -0.000000
vn 0.999999 0.001249 -0.000000
vn 0.999999 0.001249 -0.000000
vn 0.000000 -0.255318 0.966857
vn 0.000000 -0.255318 0.966857
vn 0.000000 0.001249 0.999999
vn 0.000000 0.001249 0.999999
vn -0.966857 -0.255318 -0.000000
vn -0.966857 -0.255318 -0.000000
vn -0.999999 0.001249 -0.000000
vn -0.999999 0.001249 -0.000000
vn 0.000000 0.241751 -0.970338
vn 0.000000 0.241751 -0.970338
vn 0.970339 0.241749 0.000000
vn 0.970339 0.241749 0.000000
vn 0.000000 0.241749 0.970339
vn 0.000000 0.241749 0.970339
vn -0.970338 0.241750 0.000000
vn -0.970338 0.241750 0.000000
vn 0.000000 0.000000 -1.000000
vn 0.000000 0.000000 -1.000000
vn 0.000000 0.000000 -1.000000
vn 0.000000 0.000000 -1.000000
vn 1.000000 0.000000 0.000000
vn 1.000000 0.000000 0.000000
vn 1.000000 0.000000 0.000000
vn 1.000000 0.000000 0.000000
vn 0.000000 0.000000 1.000000
vn 0.000000 0.000000 1.000000
vn 0.000000 0.000000 1.000000
vn 0.000000 0.000000 1.000000
vn -1.000000 0.000000 0.000000
vn -1.000000 0.000000 0.000000
vn -1.000000 0.000000 0.000000
vn -1.000000 0.000000 0.000000
vn 0.000000 0.000000 -1.000000
vn 0.000000 0.000000 -1.000000
vn 0.000000 0.000000 -1.000000
vn 0.000000 0.000000 -1.000000
vn 1.000000 0.000000 0.000000
vn 1.000000 0.000000 0.000000
vn 1.000000 0.000000 0.000000
vn 1.000000 0.000000 0.000000
vn 0.000000 0.000000 1.000000
vn 0.000000 0.000000 1.000000
vn 0.000000 0.000000 1.000000
vn 0.000000 0.000000 1.000000
vn -1.000000 0.000000 0.000000
vn -1.000000 0.000000 0.000000
vn -1.000000 0.000000 0.000000
vn -1.000000 0.000000 0.000000
vn 0.000000 -1.000000 0.000000
vn 0.000000 -1.000000 0.000000
vn 0.000000 -1.000000 0.000000
vn 0.000000 -1.000000 0.000000
vn 0.329645 0.884685 0.329645
vn -0.329645 0.884685 0.329645
vn -0.329645 0.884685 0.329645
vn 0.329645 0.884685 0.329645
vn 0.000000 -1.000000 -0.000000
vn 0.000000 -1.000000 -0.000000
vn 0.329645 0.884685 -0.329645
vn 0.329645 0.884685 -0.329646
vn -0.329645 0.884685 -0.329645
vn -0.329645 0.884685 -0.329645
vn 0.000000 -1.000000 -0.000000
vn 0.000000 -1.000000 -0.000000
vn 0.079961 -0.993586 -0.079961
vn -0.079961 -0.993586 -0.079961
vn -0.079961 -0.993586 -0.079961
vn 0.079961 -0.993586 -0.079962
vn 0.079961 -0.993586 0.079960
vn 0.079961 -0.993586 0.079961
vn -0.079961 -0.993586 0.079960
vn -0.079961 -0.993586 0.079960
vn -0.500824 0.705940 -0.500824
vn 0.500824 0.705939 -0.500824
vn 0.500824 0.705939 -0.500824
vn -0.500824 0.705940 -0.500824
vn 0.500824 0.705939 0.500824
vn 0.500824 0.705939 0.500824
vn -0.500824 0.705940 0.500824
vn -0.500824 0.705940 0.500824
vn 0.000000 1.000000 0.000000
vn 0.000000 1.000000 0.000000
vn 0.000000 -1.000000 -0.000000
vn 0.000000 -1.000000 -0.000000
vn 0.000000 -1.000000 -0.000000
vn 0.000000 -1.000000 -0.000000
vn 0.000000 -1.000000 -0.000000
vn 0.000000 -1.000000 -0.000000
vn 0.000000 1.000000 0.000000
vn 0.000000 -1.000000 -0.000000
vn 0.000000 -1.000000 -0.000000
vn 0.000000 1.000000 0.000000
vn 1.000000 0.000000 0.000000
vn 1.000000 0.000000 0.000000
vn 1.000000 0.000000 0.000000
vn 1.000000 0.000000 0.000000
vn 0.000000 0.000000 -1.000000
vn 0.000000 0.000000 -1.000000
vn 0.000000 0.000000 -1.000000
vn 0.000000 0.000000 -1.000000
vn -1.000000 0.000000 0.000000
vn -1.000000 0.000000 0.000000
vn -1.000000 0.000000 0.000000
vn -1.000000 0.000000 0.000000
vn 0.000000 0.000000 1.000000
vn 0.000000 0.000000 1.000000
vn 0.000000 0.000000 1.000000
vn 0.000000 0.000000 1.000000
vn 0.000000 0.000000 -1.000000
vn 0.000000 0.000000 -1.000000
vn 0.000000 0.000000 -1.000000
vn 0.000000 0.000000 -1.000000
vn 1.000000 0.000000 0.000000
vn 1.000000 0.000000 0.000000
vn 1.000000 0.000000 0.000000
vn 1.000000 0.000000 0.000000
vn 0.000000 0.000000 1.000000
vn 0.000000 0.000000 1.000000
vn 0.000000 0.000000 1.000000
vn 0.000000 0.000000 1.000000
vn -1.000000 0.000000 0.000000
vn -1.000000 0.000000 0.000000
vn -1.000000 0.000000 0.000000
vn -1.000000 0.000000 0.000000
vn 0.000000 0.000000 -1.000000
vn 0.000000 0.000000 -1.000000
vn 0.000000 0.000000 -1.000000
vn 0.000000 0.000000 -1.000000
vn 1.000000 0.000000 0.000000
vn 1.000000 0.000000 0.000000
vn 1.000000 0.000000 0.000000
vn 1.000000 0.000000 0.000000
vn 0.000000 0.000000 1.000000
vn 0.000000 0.000000 1.000000
vn 0.000000 0.000000 1.000000
vn 0.000000 0.000000 1.000000
vn -1.000000 0.000000 0.000000
vn -1.000000 0.000000 0.000000
vn -1.000000 0.000000 0.000000
vn -1.000000 0.000000 0.000000
vn 1.000000 0.000000 0.000000
vn 1.000000 0.000000 0.000000
vn 1.000000 0.000000 0.000000
vn 1.000000 0.000000 0.000000
vn 0.000000 0.000000 -1.000000
vn 0.000000 0.000000 -1.000000
vn 0.000000 0.000000 -1.000000
vn 0.000000 0.000000 -1.000000
vn -1.000000 0.000000 0.000000
vn -1.000000 0.000000 0.000000
vn -1.000000 0.000000 0.000000
vn -1.000000 0.000000 0.000000
vn 0.000000 0.000000 1.000000
vn 0.000000 0.000000 1.000000
vn 0.000000 0.000000 1.000000
vn 0.000000 0.000000 1.000000
vn 0.000000 -1.000000 -0.000000
vn 0.000000 -1.000000 -0.000000
vn 0.000000 -1.000000 -0.000000
vn 0.000000 -1.000000 -0.000000
vn -0.000000 1.000000 0.000001
vn 0.000000 1.000000 0.000001
vn 0.000000 1.000000 0.000001
vn -0.000000 1.000000 0.000001
vn -0.000000 1.000000 0.000000
vn -0.000000 1.000000 0.000000
vn 0.000000 -1.000000 0.000000
vn 0.000000 -1.000000 0.000000
vn 0.000000 1.000000 0.000000
vn 0.000000 1.000000 0.000000
vn 0.000000 -1.000000 0.000000
vn 0.000000 -1.000000 0.000000
vn 0.000000 -1.000000 0.000000
vn -0.000000 -1.000000 0.000000
vn -0.000000 -1.000000 0.000000
vn 0.000000 -1.000000 0.000000
vn 0.000000 1.000000 -0.000000
vn 0.000000 1.000000 -0.000000
vn 0.000000 1.000000 -0.000000
vn 0.000000 1.000000 -0.000000
vn 0.000000 1.000000 -0.000000
vn 0.000000 1.000000 -0.000000
vn -0.000000 -1.000000 0.000000
vn -0.000000 -1.000000 0.000000
vn 0.000000 1.000000 -0.000000
vn 0.000000 1.000000 -0.000000
vn 0.000000 -1.000000 0.000000
vn 0.000000 -1.000000 0.000000
s off
g pCube1
usemtl initialShadingGroup
f 9/13/1 10/14/2 15/23/3 16/24/4
s 1
f 3/3/5 4/4/6 6/6/7 5/5/8
s off
f 13/20/9 14/21/10 11/15/11 12/18/12
f 10/14/13 11/16/14 14/22/15 15/23/16
f 12/17/17 9/13/18 16/24/19 13/19/20
f 25/43/21 26/44/22 27/45/23 28/46/24
f 26/44/25 29/47/26 30/48/27 27/45/28
f 31/49/29 30/50/30 29/51/31 32/52/32
f 32/53/33 25/43/34 28/46/35 31/54/36
s 2
f 33/26/37 34/27/38 35/55/39 36/56/40
s 3
f 37/57/41 35/58/42 34/28/43 38/29/44
s 4
f 39/59/45 37/57/46 38/29/47 40/30/48
s 5
f 36/60/49 39/59/50 40/30/51 33/25/52
s 2
f 41/61/53 42/62/54 34/27/38 33/26/37
s 3
f 38/29/44 34/28/43 42/63/55 43/64/56
s 4
f 40/30/48 38/29/47 43/64/57 44/65/58
s 5
f 33/25/52 40/30/51 44/65/59 41/66/60
s off
f 69/103/61 70/104/62 71/105/63 72/106/64
f 73/107/65 71/108/66 70/109/67 74/110/68
f 75/111/69 73/107/70 74/110/71 76/112/72
f 72/113/73 75/111/74 76/112/75 69/114/76
f 45/67/77 46/68/78 47/69/79 48/70/80
f 49/71/81 47/72/82 46/73/83 50/74/84
f 51/75/85 49/71/86 50/74/87 52/76/88
f 48/77/89 51/75/90 52/76/91 45/78/92
s 6
f 1/1/93 2/2/94 26/44/95 25/43/96
s 7
f 10/14/97 9/13/98 28/46/99 27/45/100
s 6
f 2/2/94 8/9/101 29/47/102 26/44/95
s 7
f 11/16/103 10/14/97 27/45/100 30/48/104
f 12/18/105 11/15/103 30/50/104 31/49/106
s 6
f 8/8/101 7/7/107 32/52/108 29/51/102
f 7/11/107 1/1/93 25/43/96 32/53/108
s 7
f 9/13/98 12/17/105 31/54/106 28/46/99
s 8
f 14/21/109 13/20/110 36/56/111 35/55/112
f 15/23/113 14/22/109 35/58/112 37/57/114
f 16/24/115 15/23/113 37/57/114 39/59/116
f 13/19/110 16/24/115 39/59/116 36/60/111
s 9
f 17/32/117 18/33/118 42/62/119 41/61/120
f 18/34/118 19/35/121 43/64/122 42/63/119
f 19/35/121 20/36/123 44/65/124 43/64/122
f 20/36/123 17/31/117 41/66/120 44/65/124
s 1
f 5/5/8 6/6/7 46/68/125 45/67/126
s 10
f 22/39/127 21/38/128 48/70/129 47/69/130
f 23/41/131 22/40/127 47/72/130 49/71/132
s 1
f 6/10/7 4/4/6 50/74/133 46/73/125
s 10
f 24/42/134 23/41/131 49/71/132 51/75/135
s 1
f 4/4/6 3/3/5 52/76/136 50/74/133
s 10
f 21/37/128 24/42/134 51/75/135 48/77/129
s 1
f 3/3/5 5/12/8 45/78/126 52/76/136
s off
f 19/35/137 18/34/138 54/81/139 53/79/140
f 55/83/141 54/80/142 18/33/143 17/32/144
f 17/31/145 20/36/146 56/84/147 55/82/148
f 20/36/149 19/35/150 53/79/151 56/84/152
f 77/115/153 78/116/154 79/117/155 80/118/156
f 81/119/157 79/120/158 78/121/159 82/122/160
f 83/123/161 81/119/162 82/122/163 84/124/164
f 80/125/165 83/123/166 84/124/167 77/126/168
f 21/38/169 22/39/170 62/93/171 61/92/172
f 63/95/173 62/94/174 22/40/175 23/41/176
f 64/96/177 63/95/178 23/41/179 24/42/180
f 61/91/181 64/96/182 24/42/183 21/37/184
f 59/89/185 58/88/186 66/99/187 65/97/188
f 67/101/189 66/98/190 58/87/191 57/86/192
f 57/85/193 60/90/194 68/102/195 67/100/196
f 60/90/197 59/89/198 65/97/199 68/102/200
s 11
f 57/86/201 58/87/202 70/104/203 69/103/204
s 12
f 54/80/205 55/83/206 72/106/207 71/105/208
f 53/79/209 54/81/205 71/108/208 73/107/210
s 11
f 58/88/202 59/89/211 74/110/212 70/109/203
s 12
f 56/84/213 53/79/209 73/107/210 75/111/214
s 11
f 59/89/211 60/90/215 76/112/216 74/110/212
s 12
f 55/82/206 56/84/213 75/111/214 72/113/207
s 11
f 60/90/215 57/85/201 69/114/204 76/112/216
s 13
f 61/92/217 62/93/218 78/116/219 77/115/220
s 14
f 66/98/221 67/101/222 80/118/223 79/117/224
f 65/97/225 66/99/221 79/120/224 81/119/226
s 13
f 62/94/218 63/95/227 82/122/228 78/121/219
s 14
f 68/102/229 65/97/225 81/119/226 83/123/230
s 13
f 63/95/227 64/96/231 84/124/232 82/122/228
s 14
f 67/100/222 68/102/229 83/123/230 80/125/223
s 13
f 64/96/231 61/91/217 77/126/220 84/124/232
